<?xml version="1.0" standalone="no"?>
<!DOCTYPE svg PUBLIC "-//W3C//DTD SVG 20010904//EN"
 "http://www.w3.org/TR/2001/REC-SVG-20010904/DTD/svg10.dtd">
<svg version="1.0" xmlns="http://www.w3.org/2000/svg"
 width="180.000000pt" height="180.000000pt" viewBox="0 0 180.000000 180.000000"
 preserveAspectRatio="xMidYMid meet">
<metadata>
Created by potrace 1.14, written by Peter Selinger 2001-2017
</metadata>
<g transform="translate(0.000000,180.000000) scale(0.100000,-0.100000)"
fill="#000000" stroke="none">
<path d="M0 900 l0 -900 900 0 900 0 0 900 0 900 -900 0 -900 0 0 -900z m1179
498 l141 -151 0 -347 0 -347 -141 -152 -140 -151 -277 2 -277 3 -3 635 c-1
349 0 641 3 648 3 9 69 12 279 12 l275 0 140 -152z"/>
<path d="M903 1393 l-133 -143 0 -350 0 -350 133 -143 132 -143 3 318 c1 175
1 461 0 636 l-3 318 -132 -143z"/>
</g>
</svg>
